<mxfile host="app.diagrams.net" agent="Mozilla/5.0 (Windows NT 10.0; Win64; x64) AppleWebKit/537.36 (KHTML, like Gecko) Chrome/131.0.0.0 Safari/537.36 Edg/131.0.0.0" version="25.0.3">
  <diagram id="C5RBs43oDa-KdzZeNtuy" name="Page-1">
    <mxGraphModel dx="2073" dy="681" grid="1" gridSize="10" guides="1" tooltips="1" connect="1" arrows="1" fold="1" page="1" pageScale="1" pageWidth="827" pageHeight="1169" math="0" shadow="0">
      <root>
        <mxCell id="WIyWlLk6GJQsqaUBKTNV-0" />
        <mxCell id="WIyWlLk6GJQsqaUBKTNV-1" parent="WIyWlLk6GJQsqaUBKTNV-0" />
        <mxCell id="mvioNwK95yMqdUQ73LqQ-36" value="" style="swimlane;fontFamily=Sarabun;fontSource=https%3A%2F%2Ffonts.googleapis.com%2Fcss%3Ffamily%3DSarabun;" parent="WIyWlLk6GJQsqaUBKTNV-1" vertex="1">
          <mxGeometry x="-720" y="10" width="830" height="1670" as="geometry" />
        </mxCell>
        <mxCell id="pXdczCPLqUhGzNIIeVMN-3" style="edgeStyle=orthogonalEdgeStyle;rounded=0;orthogonalLoop=1;jettySize=auto;html=1;" parent="mvioNwK95yMqdUQ73LqQ-36" source="mvioNwK95yMqdUQ73LqQ-35" edge="1">
          <mxGeometry relative="1" as="geometry">
            <mxPoint x="320" y="130" as="targetPoint" />
          </mxGeometry>
        </mxCell>
        <mxCell id="mvioNwK95yMqdUQ73LqQ-35" value="&lt;font data-font-src=&quot;https://fonts.googleapis.com/css?family=Sarabun&quot; face=&quot;Sarabun&quot;&gt;Start&lt;/font&gt;" style="ellipse;whiteSpace=wrap;html=1;" parent="mvioNwK95yMqdUQ73LqQ-36" vertex="1">
          <mxGeometry x="255" y="40" width="130" height="30" as="geometry" />
        </mxCell>
        <mxCell id="uuqHhotu2dbNazjetL3C-24" value="&lt;font data-font-src=&quot;https://fonts.googleapis.com/css?family=Sarabun&quot; face=&quot;Sarabun&quot;&gt;End&lt;/font&gt;" style="ellipse;whiteSpace=wrap;html=1;" parent="mvioNwK95yMqdUQ73LqQ-36" vertex="1">
          <mxGeometry x="250" y="620" width="130" height="30" as="geometry" />
        </mxCell>
        <mxCell id="cZ8OAVp9EKTLbv83ashX-1" style="edgeStyle=orthogonalEdgeStyle;rounded=0;orthogonalLoop=1;jettySize=auto;html=1;" edge="1" parent="mvioNwK95yMqdUQ73LqQ-36" source="cZ8OAVp9EKTLbv83ashX-0">
          <mxGeometry relative="1" as="geometry">
            <mxPoint x="315" y="280" as="targetPoint" />
          </mxGeometry>
        </mxCell>
        <mxCell id="cZ8OAVp9EKTLbv83ashX-0" value="Read str" style="shape=parallelogram;perimeter=parallelogramPerimeter;whiteSpace=wrap;html=1;fixedSize=1;" vertex="1" parent="mvioNwK95yMqdUQ73LqQ-36">
          <mxGeometry x="255" y="130" width="120" height="60" as="geometry" />
        </mxCell>
        <mxCell id="cZ8OAVp9EKTLbv83ashX-3" style="edgeStyle=orthogonalEdgeStyle;rounded=0;orthogonalLoop=1;jettySize=auto;html=1;" edge="1" parent="mvioNwK95yMqdUQ73LqQ-36" source="cZ8OAVp9EKTLbv83ashX-2">
          <mxGeometry relative="1" as="geometry">
            <mxPoint x="315" y="440" as="targetPoint" />
          </mxGeometry>
        </mxCell>
        <mxCell id="cZ8OAVp9EKTLbv83ashX-2" value="reverseString(*str)" style="shape=process;whiteSpace=wrap;html=1;backgroundOutline=1;" vertex="1" parent="mvioNwK95yMqdUQ73LqQ-36">
          <mxGeometry x="255" y="280" width="120" height="60" as="geometry" />
        </mxCell>
        <mxCell id="cZ8OAVp9EKTLbv83ashX-5" style="edgeStyle=orthogonalEdgeStyle;rounded=0;orthogonalLoop=1;jettySize=auto;html=1;" edge="1" parent="mvioNwK95yMqdUQ73LqQ-36" source="cZ8OAVp9EKTLbv83ashX-4">
          <mxGeometry relative="1" as="geometry">
            <mxPoint x="315" y="620" as="targetPoint" />
          </mxGeometry>
        </mxCell>
        <mxCell id="cZ8OAVp9EKTLbv83ashX-4" value="Display str" style="shape=parallelogram;perimeter=parallelogramPerimeter;whiteSpace=wrap;html=1;fixedSize=1;" vertex="1" parent="mvioNwK95yMqdUQ73LqQ-36">
          <mxGeometry x="255" y="440" width="120" height="60" as="geometry" />
        </mxCell>
        <mxCell id="cZ8OAVp9EKTLbv83ashX-7" style="edgeStyle=orthogonalEdgeStyle;rounded=0;orthogonalLoop=1;jettySize=auto;html=1;" edge="1" parent="mvioNwK95yMqdUQ73LqQ-36" source="cZ8OAVp9EKTLbv83ashX-6">
          <mxGeometry relative="1" as="geometry">
            <mxPoint x="655" y="200" as="targetPoint" />
          </mxGeometry>
        </mxCell>
        <mxCell id="cZ8OAVp9EKTLbv83ashX-6" value="&lt;font data-font-src=&quot;https://fonts.googleapis.com/css?family=Sarabun&quot; face=&quot;Sarabun&quot;&gt;reverseString(*)&lt;/font&gt;" style="ellipse;whiteSpace=wrap;html=1;" vertex="1" parent="mvioNwK95yMqdUQ73LqQ-36">
          <mxGeometry x="590" y="50" width="130" height="30" as="geometry" />
        </mxCell>
        <mxCell id="cZ8OAVp9EKTLbv83ashX-9" style="edgeStyle=orthogonalEdgeStyle;rounded=0;orthogonalLoop=1;jettySize=auto;html=1;" edge="1" parent="mvioNwK95yMqdUQ73LqQ-36" source="cZ8OAVp9EKTLbv83ashX-8">
          <mxGeometry relative="1" as="geometry">
            <mxPoint x="657.5" y="330" as="targetPoint" />
          </mxGeometry>
        </mxCell>
        <mxCell id="cZ8OAVp9EKTLbv83ashX-8" value="Declare &amp;amp; Init&lt;div&gt;length variable is size of string&lt;/div&gt;&lt;div&gt;i is int for first string index&lt;/div&gt;" style="rounded=0;whiteSpace=wrap;html=1;" vertex="1" parent="mvioNwK95yMqdUQ73LqQ-36">
          <mxGeometry x="560" y="200" width="195" height="60" as="geometry" />
        </mxCell>
        <mxCell id="cZ8OAVp9EKTLbv83ashX-49" style="edgeStyle=orthogonalEdgeStyle;rounded=0;orthogonalLoop=1;jettySize=auto;html=1;entryX=0.5;entryY=0;entryDx=0;entryDy=0;" edge="1" parent="mvioNwK95yMqdUQ73LqQ-36" source="cZ8OAVp9EKTLbv83ashX-10" target="cZ8OAVp9EKTLbv83ashX-46">
          <mxGeometry relative="1" as="geometry" />
        </mxCell>
        <mxCell id="cZ8OAVp9EKTLbv83ashX-10" value="i = 0" style="rounded=0;whiteSpace=wrap;html=1;" vertex="1" parent="mvioNwK95yMqdUQ73LqQ-36">
          <mxGeometry x="600" y="330" width="120" height="60" as="geometry" />
        </mxCell>
        <mxCell id="cZ8OAVp9EKTLbv83ashX-14" style="edgeStyle=orthogonalEdgeStyle;rounded=0;orthogonalLoop=1;jettySize=auto;html=1;" edge="1" parent="mvioNwK95yMqdUQ73LqQ-36" source="cZ8OAVp9EKTLbv83ashX-13">
          <mxGeometry relative="1" as="geometry">
            <mxPoint x="660" y="630" as="targetPoint" />
          </mxGeometry>
        </mxCell>
        <mxCell id="cZ8OAVp9EKTLbv83ashX-52" style="edgeStyle=orthogonalEdgeStyle;rounded=0;orthogonalLoop=1;jettySize=auto;html=1;entryX=0.5;entryY=0;entryDx=0;entryDy=0;" edge="1" parent="mvioNwK95yMqdUQ73LqQ-36" source="cZ8OAVp9EKTLbv83ashX-13" target="cZ8OAVp9EKTLbv83ashX-51">
          <mxGeometry relative="1" as="geometry">
            <Array as="points">
              <mxPoint x="810" y="495" />
              <mxPoint x="810" y="1020" />
            </Array>
          </mxGeometry>
        </mxCell>
        <mxCell id="cZ8OAVp9EKTLbv83ashX-13" value="i &amp;lt; length / 2 ?" style="rhombus;whiteSpace=wrap;html=1;" vertex="1" parent="mvioNwK95yMqdUQ73LqQ-36">
          <mxGeometry x="604" y="450" width="112" height="90" as="geometry" />
        </mxCell>
        <mxCell id="cZ8OAVp9EKTLbv83ashX-16" style="edgeStyle=orthogonalEdgeStyle;rounded=0;orthogonalLoop=1;jettySize=auto;html=1;" edge="1" parent="mvioNwK95yMqdUQ73LqQ-36" source="cZ8OAVp9EKTLbv83ashX-15">
          <mxGeometry relative="1" as="geometry">
            <mxPoint x="660" y="770" as="targetPoint" />
          </mxGeometry>
        </mxCell>
        <mxCell id="cZ8OAVp9EKTLbv83ashX-15" value="reverse [ i ] store to temp" style="rounded=0;whiteSpace=wrap;html=1;" vertex="1" parent="mvioNwK95yMqdUQ73LqQ-36">
          <mxGeometry x="600" y="630" width="120" height="60" as="geometry" />
        </mxCell>
        <mxCell id="cZ8OAVp9EKTLbv83ashX-18" style="edgeStyle=orthogonalEdgeStyle;rounded=0;orthogonalLoop=1;jettySize=auto;html=1;" edge="1" parent="mvioNwK95yMqdUQ73LqQ-36" source="cZ8OAVp9EKTLbv83ashX-17">
          <mxGeometry relative="1" as="geometry">
            <mxPoint x="664" y="910" as="targetPoint" />
          </mxGeometry>
        </mxCell>
        <mxCell id="cZ8OAVp9EKTLbv83ashX-17" value="reverse [ length - 1 - i ] store to reverse [ i ]" style="rounded=0;whiteSpace=wrap;html=1;" vertex="1" parent="mvioNwK95yMqdUQ73LqQ-36">
          <mxGeometry x="590" y="770" width="148" height="60" as="geometry" />
        </mxCell>
        <mxCell id="cZ8OAVp9EKTLbv83ashX-43" style="edgeStyle=orthogonalEdgeStyle;rounded=0;orthogonalLoop=1;jettySize=auto;html=1;" edge="1" parent="mvioNwK95yMqdUQ73LqQ-36" source="cZ8OAVp9EKTLbv83ashX-41" target="cZ8OAVp9EKTLbv83ashX-44">
          <mxGeometry relative="1" as="geometry">
            <mxPoint x="540" y="840" as="targetPoint" />
          </mxGeometry>
        </mxCell>
        <mxCell id="cZ8OAVp9EKTLbv83ashX-41" value="temp store to reverse[length - 1 - i]" style="rounded=0;whiteSpace=wrap;html=1;" vertex="1" parent="mvioNwK95yMqdUQ73LqQ-36">
          <mxGeometry x="590" y="910" width="148" height="60" as="geometry" />
        </mxCell>
        <mxCell id="cZ8OAVp9EKTLbv83ashX-47" style="edgeStyle=orthogonalEdgeStyle;rounded=0;orthogonalLoop=1;jettySize=auto;html=1;entryX=0;entryY=0.5;entryDx=0;entryDy=0;" edge="1" parent="mvioNwK95yMqdUQ73LqQ-36" source="cZ8OAVp9EKTLbv83ashX-44" target="cZ8OAVp9EKTLbv83ashX-46">
          <mxGeometry relative="1" as="geometry">
            <Array as="points">
              <mxPoint x="520" y="425" />
            </Array>
          </mxGeometry>
        </mxCell>
        <mxCell id="cZ8OAVp9EKTLbv83ashX-44" value="i++" style="rounded=0;whiteSpace=wrap;html=1;" vertex="1" parent="mvioNwK95yMqdUQ73LqQ-36">
          <mxGeometry x="480" y="720" width="80" height="30" as="geometry" />
        </mxCell>
        <mxCell id="cZ8OAVp9EKTLbv83ashX-50" style="edgeStyle=orthogonalEdgeStyle;rounded=0;orthogonalLoop=1;jettySize=auto;html=1;entryX=0.5;entryY=0;entryDx=0;entryDy=0;" edge="1" parent="mvioNwK95yMqdUQ73LqQ-36" source="cZ8OAVp9EKTLbv83ashX-46" target="cZ8OAVp9EKTLbv83ashX-13">
          <mxGeometry relative="1" as="geometry" />
        </mxCell>
        <mxCell id="cZ8OAVp9EKTLbv83ashX-46" value="" style="ellipse;whiteSpace=wrap;html=1;aspect=fixed;" vertex="1" parent="mvioNwK95yMqdUQ73LqQ-36">
          <mxGeometry x="655" y="420" width="10" height="10" as="geometry" />
        </mxCell>
        <mxCell id="cZ8OAVp9EKTLbv83ashX-51" value="&lt;font data-font-src=&quot;https://fonts.googleapis.com/css?family=Sarabun&quot; face=&quot;Sarabun&quot;&gt;return void&lt;/font&gt;" style="ellipse;whiteSpace=wrap;html=1;" vertex="1" parent="mvioNwK95yMqdUQ73LqQ-36">
          <mxGeometry x="592.5" y="1080" width="130" height="30" as="geometry" />
        </mxCell>
        <mxCell id="cZ8OAVp9EKTLbv83ashX-53" value="Yes" style="text;html=1;align=center;verticalAlign=middle;resizable=0;points=[];autosize=1;strokeColor=none;fillColor=none;" vertex="1" parent="mvioNwK95yMqdUQ73LqQ-36">
          <mxGeometry x="615" y="540" width="40" height="30" as="geometry" />
        </mxCell>
        <mxCell id="cZ8OAVp9EKTLbv83ashX-54" value="No" style="text;html=1;align=center;verticalAlign=middle;resizable=0;points=[];autosize=1;strokeColor=none;fillColor=none;" vertex="1" parent="mvioNwK95yMqdUQ73LqQ-36">
          <mxGeometry x="715" y="440" width="40" height="30" as="geometry" />
        </mxCell>
      </root>
    </mxGraphModel>
  </diagram>
</mxfile>
